<svg enable-background="new 0 0 64 64" viewBox="0 0 64 64" xmlns="http://www.w3.org/2000/svg"><circle cx="32" cy="32" fill="#ffcb04" r="32"/><path d="m13.2 24.5c-2 2.4-3.5 5.4-4.1 8.6s-.4 6.7.7 9.9c.9 2.6 2.3 5 4.2 7.1l-3.7 3.7h11.2v-11.1l-3.8 3.8c-1.7-1.3-3.1-3-4.1-5-1.2-2.4-1.9-5.2-1.8-8s.9-5.7 2.4-8.1c1.5-2.5 3.7-4.7 6.4-6.2-2.8 1.1-5.4 2.9-7.4 5.3z" fill="#fff"/><path d="m50.8 39.5c2-2.4 3.5-5.4 4.1-8.6s.4-6.7-.7-9.9c-.9-2.6-2.3-5-4.2-7.1l3.7-3.7h-11.2v11.2l3.8-3.8c1.7 1.3 3.1 3 4.1 5 1.2 2.4 1.9 5.2 1.8 8s-.9 5.7-2.4 8.1c-1.5 2.5-3.7 4.7-6.4 6.2 2.8-1.2 5.4-3 7.4-5.4z" fill="#695652"/><path d="m38.7 23.8c-2.8 0-5.2 1.4-6.7 3.5.9 1.3 1.5 3 1.5 4.7 0 1.8-.6 3.4-1.5 4.7 1.5 2.1 4 3.5 6.7 3.5 4.5 0 8.2-3.7 8.2-8.2.1-4.6-3.6-8.2-8.2-8.2z" fill="#00a8ea"/><path d="m41.2 35.1.6 1.7c-.5.3-1 .5-1.6.5-.3 0-.8-.1-1.3-.3-.6-.2-1-.3-1.3-.3-.5 0-.9.2-1.4.6l-.6-1.7c.4-.3.7-.7.9-1.1s.3-.8.3-1.2c0-.1 0-.3 0-.4h-1.2v-1.5h.9c-.2-.5-.2-1.1-.2-1.7 0-.8.3-1.5.8-2s1.1-.8 1.9-.8c.7 0 1.3.2 1.7.7.5.4.7 1.1.8 2l-1.5.1c-.1-.9-.5-1.4-1.1-1.4-.3 0-.5.1-.7.4-.2.2-.3.6-.3.9 0 .5.1 1 .3 1.6h1.8v1.5h-1.5v.3c0 .4-.1.7-.2 1s-.3.7-.7 1.2c.2-.1.5-.2.8-.2h.4c.1 0 .3.1.7.2.2.1.5.1.6.1.3.2.7.1 1.1-.2z" fill="#fff"/><path d="m46.9 32c0 4.5-3.7 8.2-8.2 8.2-.2 0-.4 0-.7 0 4.3-.3 7.6-3.9 7.6-8.2s-3.3-7.9-7.6-8.2h.6c4.6 0 8.3 3.6 8.3 8.2z" fill="#231f20" opacity=".1"/><path d="m39.4 40.2c-.2 0-.4 0-.6 0-4.5 0-8.2-3.7-8.2-8.2s3.7-8.2 8.2-8.2h.7c-4.3.3-7.6 3.9-7.6 8.2-.1 4.3 3.3 7.9 7.5 8.2z" fill="#fff" opacity=".2"/><circle cx="25.3" cy="32" fill="#eb5151" r="8.2"/><path d="m28.5 32.9c-.1-.4-.5-1.4-2.8-1.8v-2.7c.5.2.9.5 1 1.1.1.5.4.7.8.7.2 0 1.6-.4.2-2.1-.2-.3-.6-.8-2.1-.9v-1.1h-.8v1.1c-2.6.3-2.8 1.9-2.8 2.7 0 2.2 2.2 2.6 2.8 2.8v3c-1.1-.2-1.3-1.3-1.4-1.7-.2-.5-.6-.5-.8-.5-.6 0-.9.6-.9.8 0 .3.1 1.6 1.7 2.4.4.2.8.3 1.3.4v1h.8v-1c.6-.1 1.2-.2 1.6-.5 1.5-.9 1.9-2.3 1.4-3.7zm-3.6-2c-.6-.3-1.1-.4-1.2-1.3 0-.4.1-1 1.2-1.2zm.8 4.8v-2.9c1.4.4 1.4 1 1.4 1.4s-.1 1.2-1.4 1.5z" fill="#fff"/><path d="m33.5 32c0 4.5-3.7 8.2-8.2 8.2-.2 0-.4 0-.7 0 4.3-.3 7.6-3.9 7.6-8.2s-3.3-7.9-7.6-8.2h.6c4.6 0 8.3 3.6 8.3 8.2z" fill="#231f20" opacity=".1"/><path d="m25.9 40.2c-.2 0-.4 0-.6 0-4.5 0-8.2-3.7-8.2-8.2s3.7-8.2 8.2-8.2h.7c-4.3.3-7.6 3.9-7.6 8.2-.1 4.3 3.3 7.9 7.5 8.2z" fill="#fff" opacity=".2"/></svg>